<svg width="2" height="2" viewBox="0 0 2 2" fill="none" xmlns="http://www.w3.org/2000/svg">
<path d="M1.12218 1.84666C1.10107 1.91944 0.989841 1.91944 0.968739 1.84666L0.855092 1.45485C0.847751 1.42947 0.826363 1.40964 0.799032 1.40281L0.376986 1.29731C0.298584 1.27772 0.298584 1.17447 0.376986 1.15487L0.799032 1.04938C0.826363 1.04254 0.847751 1.02272 0.855092 0.997333L0.968739 0.605522C0.989841 0.532747 1.10107 0.532747 1.12218 0.605522L1.23582 0.997333C1.24316 1.02272 1.26452 1.04254 1.29188 1.04938L1.71393 1.15487C1.79233 1.17447 1.79233 1.27772 1.71393 1.29731L1.29188 1.40281C1.26452 1.40964 1.24316 1.42947 1.23582 1.45485L1.12218 1.84666Z" fill="white"/>
</svg>
